<svg width="15" height="22" viewBox="0 0 15 22" fill="none" xmlns="http://www.w3.org/2000/svg">
<mask id="path-1-outside-1_301_915" maskUnits="userSpaceOnUse" x="0" y="0" width="15" height="22" fill="black">
<rect fill="white" width="15" height="22"/>
<path fill-rule="evenodd" clip-rule="evenodd" d="M13.8049 7.40244C13.8049 8.84953 13.3248 10.1845 12.5152 11.2567C12.2275 11.6571 11.8385 12.0831 11.4079 12.5547C9.91225 14.1927 7.91463 16.3805 7.91463 19.9512C7.91463 20.2341 7.68532 20.4634 7.40244 20.4634C7.11956 20.4634 6.89024 20.2341 6.89024 19.9512C6.89024 16.3805 4.89263 14.1927 3.39699 12.5547C2.9664 12.0831 2.57741 11.6571 2.28968 11.2567C1.48009 10.1845 1 8.84953 1 7.40244C1 3.86647 3.86647 1 7.40244 1C10.9384 1 13.8049 3.86647 13.8049 7.40244Z"/>
</mask>
<path fill-rule="evenodd" clip-rule="evenodd" d="M13.8049 7.40244C13.8049 8.84953 13.3248 10.1845 12.5152 11.2567C12.2275 11.6571 11.8385 12.0831 11.4079 12.5547C9.91225 14.1927 7.91463 16.3805 7.91463 19.9512C7.91463 20.2341 7.68532 20.4634 7.40244 20.4634C7.11956 20.4634 6.89024 20.2341 6.89024 19.9512C6.89024 16.3805 4.89263 14.1927 3.39699 12.5547C2.9664 12.0831 2.57741 11.6571 2.28968 11.2567C1.48009 10.1845 1 8.84953 1 7.40244C1 3.86647 3.86647 1 7.40244 1C10.9384 1 13.8049 3.86647 13.8049 7.40244Z" fill="#DADADA"/>
<path d="M12.5152 11.2567L11.7171 10.6542L11.71 10.6636L11.7032 10.6731L12.5152 11.2567ZM11.4079 12.5547L10.6694 11.8804L11.4079 12.5547ZM3.39699 12.5547L4.13546 11.8804H4.13546L3.39699 12.5547ZM2.28968 11.2567L3.1017 10.6731L3.09483 10.6635L3.08774 10.6542L2.28968 11.2567ZM13.3133 11.8593C14.2494 10.6195 14.8049 9.07442 14.8049 7.40244H12.8049C12.8049 8.62465 12.4002 9.74947 11.7171 10.6542L13.3133 11.8593ZM12.1464 13.2289C12.5648 12.7707 12.9982 12.2981 13.3272 11.8404L11.7032 10.6731C11.4567 11.016 11.1122 11.3955 10.6694 11.8804L12.1464 13.2289ZM8.91463 19.9512C8.91463 16.8025 10.6466 14.8715 12.1464 13.2289L10.6694 11.8804C9.1779 13.5139 6.91463 15.9584 6.91463 19.9512H8.91463ZM7.40244 21.4634C8.2376 21.4634 8.91463 20.7864 8.91463 19.9512H6.91463C6.91463 19.6818 7.13303 19.4634 7.40244 19.4634V21.4634ZM5.89024 19.9512C5.89024 20.7864 6.56728 21.4634 7.40244 21.4634V19.4634C7.67184 19.4634 7.89024 19.6818 7.89024 19.9512H5.89024ZM2.65852 13.2289C4.15827 14.8715 5.89024 16.8025 5.89024 19.9512H7.89024C7.89024 15.9584 5.62698 13.5139 4.13546 11.8804L2.65852 13.2289ZM1.47766 11.8404C1.80666 12.2981 2.24009 12.7707 2.65852 13.2289L4.13546 11.8804C3.69271 11.3955 3.34817 11.016 3.1017 10.6731L1.47766 11.8404ZM0 7.40244C0 9.07442 0.555521 10.6195 1.49162 11.8593L3.08774 10.6542C2.40466 9.74946 2 8.62464 2 7.40244H0ZM7.40244 0C3.31418 0 0 3.31418 0 7.40244H2C2 4.41875 4.41875 2 7.40244 2V0ZM14.8049 7.40244C14.8049 3.31418 11.4907 0 7.40244 0V2C10.3861 2 12.8049 4.41875 12.8049 7.40244H14.8049Z" fill="url(#paint0_linear_301_915)" mask="url(#path-1-outside-1_301_915)"/>
<circle cx="7.40234" cy="7.5" r="2.5" fill="black" fill-opacity="0.4"/>
<defs>
<linearGradient id="paint0_linear_301_915" x1="7.40244" y1="1" x2="7.40244" y2="20.4634" gradientUnits="userSpaceOnUse">
<stop stop-color="white"/>
<stop offset="1" stop-color="white" stop-opacity="0.35"/>
</linearGradient>
</defs>
</svg>
